<svg xmlns="http://www.w3.org/2000/svg" version="1.1" id="google" x="0px" y="0px" viewBox="0 0 7.2 7.2" xml:space="preserve" enable-background="new 0 0 7.2 7.2"><g id="XMLID_1_"><path id="XMLID_5_" class="st0" d="M4.5 0.1C4.4 0 4.3 0 4.2 0c0 0-0.7 0.4-1.7 0.1 0 0 0 0-0.1 0 -0.3-0.1-0.5 0-0.5 0 0 0-0.6 0.1-1 0.6C0.7 1 0.6 1.5 0.7 2.1c0.1 0.5 0.5 1.4 1.6 1.4 0 0 0.2 0 0.3 0C2.4 3.8 2.5 4 2.7 4.2 1.6 4.1 0.8 4.3 0.3 4.8 0 5.1-0.1 5.5 0.1 5.9c0.3 0.9 1.1 1.3 2.4 1.3C3 7.2 3.6 6.9 4 6.5c0.2-0.3 0.3-0.6 0.3-0.9C4.2 5.2 4 4.9 3.7 4.6c0 0 0 0 0 0 0 0 0 0 0 0C3.6 4.5 3.5 4.5 3.5 4.4 3.4 4.3 3.3 4.2 3.2 4.1L3.2 4.1C2.9 3.8 2.8 3.7 3.3 3.2 4 2.4 3.9 1.8 3.8 1.7c-0.1-0.5-0.3-0.8-0.5-1 0.6 0 1-0.2 1-0.3C4.5 0.4 4.5 0.2 4.5 0.1zM3.1 4.7c0 0 0.1 0 0.3 0.2 0 0 0 0 0 0 0.2 0.2 0.4 0.5 0.5 0.8 0 0.2 0 0.3-0.2 0.5C3.4 6.5 2.9 6.8 2.4 6.8c-1.1 0-1.7-0.3-1.9-1 -0.1-0.2 0-0.5 0.2-0.7 0.2-0.3 0.7-0.5 1.5-0.5C2.4 4.6 2.7 4.7 3.1 4.7zM3.4 1.8c0 0 0.1 0.4-0.4 1C2.7 3.1 2.3 3.1 2.3 3.1c0 0 0 0 0 0 -1.1 0-1.2-1-1.2-1C1 1.6 1.1 1.2 1.3 1 1.6 0.6 2 0.6 2 0.6c0 0 0.1 0 0.1 0 0.1 0 0.1 0 0.2 0 0 0 0 0 0 0 0 0 0 0 0.1 0C2.7 0.7 3.2 1 3.4 1.8zM7 1.3H6V0.3c0-0.1-0.1-0.2-0.2-0.2 -0.1 0-0.2 0.1-0.2 0.2v0.9H4.6c-0.1 0-0.2 0.1-0.2 0.2 0 0.1 0.1 0.2 0.2 0.2h0.9v0.9c0 0.1 0.1 0.2 0.2 0.2C5.9 2.9 6 2.8 6 2.7V1.7H7c0.1 0 0.2-0.1 0.2-0.2C7.2 1.4 7.1 1.3 7 1.3z"/></g></svg>