<svg xmlns="http://www.w3.org/2000/svg" version="1.1" id="instagram" x="0px" y="0px" viewBox="0 0 6.6 6.3" xml:space="preserve" enable-background="new 0 0 6.6 6.3"><g id="XMLID_3_"><path id="XMLID_6_" class="st0" d="M6 0H0.6C0.3 0 0 0.3 0 0.6v5.1C0 6 0.3 6.3 0.6 6.3H6c0.3 0 0.6-0.3 0.6-0.6V0.6C6.6 0.3 6.3 0 6 0zM6.2 5.7c0 0.1-0.1 0.2-0.2 0.2H0.6c-0.1 0-0.2-0.1-0.2-0.2V2.8h1.2C1.5 3 1.5 3.3 1.5 3.6c0 1 0.8 1.8 1.8 1.8 1 0 1.8-0.8 1.8-1.8C5.1 3.3 5 3 4.9 2.8h1.3V5.7zM1.9 3.6c0-0.7 0.6-1.3 1.4-1.3s1.4 0.6 1.4 1.3c0 0.7-0.6 1.3-1.4 1.3S1.9 4.3 1.9 3.6zM6.2 2.4H4.6c0 0 0 0 0 0C4.3 2 3.8 1.8 3.3 1.8c-0.5 0-1 0.2-1.3 0.6H0.4V0.6c0-0.1 0.1-0.2 0.2-0.2H6c0.1 0 0.2 0.1 0.2 0.2V2.4zM5.4 0.7H4.9c-0.3 0-0.5 0.2-0.5 0.5v0.4c0 0.3 0.2 0.5 0.5 0.5h0.5c0.3 0 0.5-0.2 0.5-0.5V1.2C5.9 0.9 5.7 0.7 5.4 0.7zM5.4 1.6C5.4 1.6 5.4 1.6 5.4 1.6l-0.5 0c0 0 0 0 0 0V1.2c0 0 0 0 0 0h0.5c0 0 0 0 0 0V1.6z"/></g></svg>