<svg xmlns="http://www.w3.org/2000/svg" version="1.1" id="linkedin" x="0px" y="0px" viewBox="0 0 6.2 6.2" xml:space="preserve" enable-background="new 0 0 6.2 6.2"><g id="XMLID_1_"><polygon id="XMLID_2_" class="st0" points="0.2 1.5 0.3 6.2 0.8 6.1 0.6 1.5 "/><path id="XMLID_4_" class="st0" d="M0.8 0.4C0.8 0.2 0.6 0 0.4 0 0.2 0 0 0.2 0 0.4 0 0.9 0.8 0.9 0.8 0.4zM6.1 3.5c0-1.3-0.6-2.1-1.8-2.1 -0.4 0-0.7 0.1-1 0.3C2.9 1.9 2.7 2.1 2.5 2.3l0-0.8H2.1l0.2 4.8 0.5-0.1L2.5 2.9l0.1-0.1c0.2-0.3 0.7-1 1.5-1 1 0 1.5 0.6 1.5 1.7l0.2 2.7 0.5-0.1L6.1 3.5z"/></g></svg>