<svg xmlns="http://www.w3.org/2000/svg" version="1.1" id="pinterest" x="0px" y="0px" viewBox="0 0 5.4 7.1" xml:space="preserve" enable-background="new 0 0 5.4 7.1"><path class="st0" d="M1.1 7.1C1.1 7.1 1.1 7.1 1.1 7.1 0.9 7.1 0.8 7 0.9 6.9c0.2-1 0.5-1.9 0.7-2.6C1.5 4 1.4 3.7 1.4 3.4c-0.2-1.6 0.3-2 0.4-2 0.4-0.2 0.6-0.1 0.7 0 0.4 0.3 0.1 1.2 0 1.5 0 0 0 0 0 0 0 0-0.2 0.5-0.5 1.2 0.3 0.6 0.8 0.6 0.8 0.6 0 0 0 0 0 0 0 0 0.5 0.1 1.1-0.3 0.5-0.4 0.9-1.1 1-2.1 0 0 0.1-0.8-0.5-1.3 -0.4-0.4-1-0.6-1.8-0.6 -0.1 0-1.8-0.1-2.2 1.8 0 0 0 0 0 0 0 0-0.1 0.6 0.3 1.4 0.1 0.1 0 0.2-0.1 0.3C0.5 4 0.4 4 0.3 3.9 -0.1 2.9 0 2.2 0 2.2 0.5-0.1 2.7 0 2.7 0h0c0.9 0 1.6 0.2 2.1 0.7 0.7 0.7 0.6 1.6 0.6 1.7 -0.1 1.2-0.5 2-1.2 2.5C3.6 5.3 2.9 5.3 2.8 5.2c-0.1 0-0.6-0.1-0.9-0.5C1.7 5.4 1.5 6.1 1.3 6.9 1.3 7 1.2 7.1 1.1 7.1M2 1.8c0 0-0.3 0.3-0.2 1.6 0 0 0 0 0 0C2 3.1 2 2.8 2.1 2.8c0.2-0.5 0.2-0.9 0.1-1 0 0 0 0 0 0C2.2 1.8 2.1 1.8 2 1.8"/></svg>