<svg xmlns="http://www.w3.org/2000/svg" version="1.1" id="twitter" x="0px" y="0px" viewBox="0 0 6.9 5.7" xml:space="preserve" enable-background="new 0 0 6.9 5.7"><path class="st0" d="M2.4 5.7L2.4 5.7c-1.2 0-2.2-0.4-2.3-0.4C0 5.3 0 5.2 0 5.1 0 5 0.1 4.9 0.1 4.9 1.3 4.5 1.8 4.2 2 4c-2.1-1.3-1.4-3.4-1.4-3.4 0-0.1 0.1-0.1 0.1-0.1 0.1 0 0.1 0 0.2 0 1 0.9 2.1 1 2.4 0.9C3.4 0.3 4 0 4.5 0c0.6 0 1.2 0.5 1.3 0.5 0.1 0 0.2 0.1 0.4 0.1 0.2 0 0.4 0 0.4 0 0.1 0 0.1 0 0.2 0.1 0 0.1 0.1 0.1 0 0.2C6.7 1.3 6.5 1.6 6.3 1.7 6 5 4 5.7 2.4 5.7M0.8 5.1c0.4 0.1 0.9 0.2 1.6 0.2h0c2.1 0 3.3-1.2 3.5-3.7 0-0.1 0-0.1 0.1-0.2 0 0 0.2-0.1 0.3-0.4C6.3 1 6.3 1 6.2 1 6 1 5.8 1 5.6 0.9c0 0 0 0 0 0 0 0-0.6-0.4-1.1-0.4 -0.2 0-0.7 0-0.8 1.2 0 0.1-0.1 0.2-0.2 0.2 0 0-0.2 0-0.4 0C2.6 1.9 1.7 1.7 0.8 1c-0.1 0.6 0 1.9 1.5 2.7 0.1 0 0.1 0.2 0.1 0.3C2.4 4.1 2.2 4.5 0.8 5.1"/></svg>