<svg xmlns="http://www.w3.org/2000/svg" version="1.1" id="vkontakte" x="0px" y="0px" viewBox="0 0 55.4 40.7" enable-background="new 0 0 55.4 40.7" xml:space="preserve"><path d="M55.3 2.1c0.3-0.8-0.1-1.6-0.8-1.9 -0.8-0.3-1.8 0.1-2.1 0.8 -0.1 0.2-8.1 19.7-21.1 20.4V4.9c0-0.1 0.2-0.1 0.2-0.2C31.1 3 29.8-0.2 26.1 0c-0.8 0.1-1.4 0.8-1.4 1.6 0.1 0.8 0.6 1.5 1.4 1.4 1.7-0.1 2 1.5 2 2V35c-3-1.6-9.9-5.6-15.8-13.2C4.9 12.2 2.9 1.3 2.9 1.2 2.8 0.4 2-0.1 1.2 0 0.4 0.2-0.1 1 0 1.8c0.1 0.5 2.2 11.7 10.1 21.8 8.8 11.2 19 14.9 19.4 15.1 0.2 0.1 0.3 0.1 0.5 0.1 0.3 0 0.4-0.1 0.7-0.3 0.4-0.3 0.5-0.7 0.5-1.2V24.4c17 0.4 19.8 14.6 19.9 15.2 0.1 0.7 0.9 1.2 1.6 1.2 0.1 0 0.3 0 0.4 0 0.8-0.2 1.3-1 1.2-1.8 0-0.1-2.9-12.7-15.5-16.5C49.1 17.2 55 2.8 55.3 2.1z"/></svg>